<svg xmlns="http://www.w3.org/2000/svg" width="256" height="256" viewBox="0 0 256 256" role="img" aria-label="Task-Management_system logo">
  <defs>
    <linearGradient id="bg" x1="0%" y1="0%" x2="100%" y2="100%">
      <stop offset="0%" stop-color="#3b82f6"/>
      <stop offset="100%" stop-color="#22d3ee"/>
    </linearGradient>
  </defs>
  <rect width="256" height="256" rx="56" fill="url(#bg)"/>
  <path d="M78 74h100a12 12 0 0 1 12 12v16a12 12 0 0 1-12 12h-28v68a12 12 0 0 1-12 12h-20a12 12 0 0 1-12-12v-68H78a12 12 0 0 1-12-12V86a12 12 0 0 1 12-12z" fill="#07111f" opacity="0.92"/>
  <circle cx="174" cy="176" r="18" fill="#07111f" opacity="0.92"/>
  <circle cx="82" cy="176" r="18" fill="#07111f" opacity="0.92"/>
</svg>
